<svg width="452" height="80" viewBox="0 0 452 80" fill="none" xmlns="http://www.w3.org/2000/svg">
<path fill-rule="evenodd" clip-rule="evenodd" d="M76.8868 55.4982C78.8919 50.7318 80 45.4953 80 40C80 17.9086 62.0914 0 40 0C17.9086 0 0 17.9086 0 40C0 45.4194 1.07776 50.5871 3.03063 55.3004C2.84502 54.2763 2.74809 53.2217 2.74809 52.145V27.8702C2.74809 27.1069 3.17557 26.4046 3.84733 26.0534C4.15267 25.8855 11.2977 22.1603 23.2061 19.9313L23.6641 17.9771C24.8702 12.8473 29.374 9.2748 34.626 9.2748H45.3282C50.5954 9.2748 55.0992 12.8626 56.2901 17.9771L56.7481 19.9313C68.6565 22.1756 75.8015 25.8855 76.1069 26.0534C76.7939 26.4046 77.2061 27.1069 77.2061 27.8702V52.145C77.2061 53.2914 77.0964 54.4124 76.8868 55.4982ZM70.2356 66.1889C67.268 68.4504 63.5656 69.7939 59.5573 69.7939C58.4122 69.7939 57.4962 68.8779 57.4962 67.7328C57.4962 66.5878 58.4122 65.6718 59.5573 65.6718C67.0229 65.6718 73.084 59.5954 73.084 52.145V29.1679C70.5954 28.0382 64.0458 25.3664 54.687 23.7481C53.8779 23.6107 53.2214 23 53.0382 22.1908L52.2748 18.9084C51.5115 15.6565 48.6565 13.3969 45.3282 13.3969H34.626C31.2824 13.3969 28.4427 15.6718 27.6794 18.9084L26.916 22.1908C26.7328 22.9847 26.0763 23.6107 25.2672 23.7481C15.8779 25.3664 9.34351 28.0382 6.87023 29.1679V52.145C6.87023 59.6107 12.9466 65.6718 20.3969 65.6718C21.542 65.6718 22.458 66.5878 22.458 67.7328C22.458 68.8779 21.542 69.7939 20.3969 69.7939C16.4456 69.7939 12.7957 68.4899 9.85297 66.2907C17.1856 74.6919 27.9729 80 40 80C52.0756 80 62.9014 74.6491 70.2356 66.1889ZM9.49616 21.8397C9.7099 21.8397 9.92365 21.8092 10.1374 21.7328C12.3053 21.0153 14.5801 20.374 16.9007 19.8244C18.0152 19.5649 18.687 18.4504 18.4275 17.3511C18.1679 16.2366 17.0534 15.5649 15.9542 15.8244C13.5267 16.4046 11.1298 17.0763 8.83968 17.8244C7.75571 18.1756 7.17555 19.3511 7.5267 20.4199C7.83204 21.2901 8.6412 21.8397 9.49616 21.8397ZM16.2596 47.2443C16.2596 34.1603 26.9008 23.5191 39.9847 23.5191C53.0687 23.5191 63.7099 34.1756 63.7099 47.2595C63.7099 60.3435 53.0687 70.9847 39.9847 70.9847C26.9008 70.9847 16.2596 60.3282 16.2596 47.2443ZM20.3817 47.2595C20.3817 58.0687 29.1756 66.8626 39.9847 66.8626C50.7939 66.8626 59.5878 58.0534 59.5878 47.2443C59.5878 36.4351 50.7939 27.6412 39.9847 27.6412C29.1756 27.6412 20.3817 36.4504 20.3817 47.2595Z" fill="#303030"/>
<path d="M113.681 21.6777H105.841V43H100.568V21.6777H92.8332V17.4062H113.681V21.6777ZM144.436 30.7832C144.436 33.3027 143.99 35.5117 143.1 37.4102C142.209 39.3086 140.932 40.7734 139.268 41.8047C137.615 42.8359 135.717 43.3516 133.572 43.3516C131.451 43.3516 129.559 42.8418 127.895 41.8223C126.23 40.8027 124.941 39.3496 124.027 37.4629C123.113 35.5645 122.65 33.3848 122.639 30.9238V29.6582C122.639 27.1387 123.09 24.9238 123.992 23.0137C124.906 21.0918 126.189 19.6211 127.842 18.6016C129.506 17.5703 131.404 17.0547 133.537 17.0547C135.67 17.0547 137.563 17.5703 139.215 18.6016C140.879 19.6211 142.162 21.0918 143.064 23.0137C143.979 24.9238 144.436 27.1328 144.436 29.6406V30.7832ZM139.092 29.623C139.092 26.9395 138.611 24.9004 137.65 23.5059C136.689 22.1113 135.318 21.4141 133.537 21.4141C131.768 21.4141 130.402 22.1055 129.441 23.4883C128.48 24.8594 127.994 26.875 127.982 29.5352V30.7832C127.982 33.3965 128.463 35.4238 129.424 36.8652C130.385 38.3066 131.768 39.0273 133.572 39.0273C135.342 39.0273 136.701 38.3359 137.65 36.9531C138.6 35.5586 139.08 33.5312 139.092 30.8711V29.623ZM162.358 17.4062L168.932 35.9688L175.471 17.4062H182.397V43H177.106V36.0039L177.634 23.9277L170.725 43H167.104L160.214 23.9453L160.741 36.0039V43H155.468V17.4062H162.358ZM208.968 37.7266H199.722L197.964 43H192.357L201.884 17.4062H206.771L216.351 43H210.744L208.968 37.7266ZM201.146 33.4551H207.545L204.328 23.875L201.146 33.4551ZM205.418 10.5508H210.955L206.086 16H201.955L205.418 10.5508ZM239.213 36.2852C239.213 35.2891 238.862 34.5273 238.159 34C237.455 33.4609 236.19 32.8984 234.362 32.3125C232.534 31.7148 231.086 31.1289 230.02 30.5547C227.114 28.9844 225.661 26.8691 225.661 24.209C225.661 22.8262 226.047 21.5957 226.821 20.5176C227.606 19.4277 228.725 18.5781 230.178 17.9688C231.643 17.3594 233.284 17.0547 235.1 17.0547C236.928 17.0547 238.557 17.3887 239.987 18.0566C241.416 18.7129 242.524 19.6445 243.309 20.8516C244.106 22.0586 244.504 23.4297 244.504 24.9648H239.231C239.231 23.793 238.862 22.8848 238.123 22.2402C237.385 21.584 236.348 21.2559 235.012 21.2559C233.723 21.2559 232.721 21.5312 232.006 22.082C231.291 22.6211 230.934 23.3359 230.934 24.2266C230.934 25.0586 231.35 25.7559 232.182 26.3184C233.026 26.8809 234.262 27.4082 235.891 27.9004C238.891 28.8027 241.077 29.9219 242.448 31.2578C243.819 32.5938 244.504 34.2578 244.504 36.25C244.504 38.4648 243.666 40.2051 241.991 41.4707C240.315 42.7246 238.059 43.3516 235.223 43.3516C233.254 43.3516 231.461 42.9941 229.844 42.2793C228.227 41.5527 226.991 40.5625 226.135 39.3086C225.291 38.0547 224.87 36.6016 224.87 34.9492H230.161C230.161 37.7734 231.848 39.1855 235.223 39.1855C236.477 39.1855 237.455 38.9336 238.159 38.4297C238.862 37.9141 239.213 37.1992 239.213 36.2852ZM286.854 32.541H276.729V43H271.455V17.4062H288.119V21.6777H276.729V28.2871H286.854V32.541ZM307.852 33.6309H303.651V43H298.378V17.4062H307.887C310.911 17.4062 313.243 18.0801 314.884 19.4277C316.524 20.7754 317.345 22.6797 317.345 25.1406C317.345 26.8867 316.964 28.3457 316.202 29.5176C315.452 30.6777 314.309 31.6035 312.774 32.2949L318.311 42.7539V43H312.651L307.852 33.6309ZM303.651 29.3594H307.905C309.229 29.3594 310.255 29.0254 310.981 28.3574C311.708 27.6777 312.071 26.7461 312.071 25.5625C312.071 24.3555 311.725 23.4062 311.034 22.7148C310.354 22.0234 309.305 21.6777 307.887 21.6777H303.651V29.3594ZM343.968 31.9082H333.843V38.7637H345.726V43H328.57V17.4062H345.691V21.6777H333.843V27.7773H343.968V31.9082ZM361.627 43H356.354V17.4062H361.627V43ZM392.47 21.6777H384.63V43H379.357V21.6777H371.622V17.4062H392.47V21.6777ZM415.033 37.7266H405.787L404.029 43H398.422L407.949 17.4062H412.836L422.416 43H416.809L415.033 37.7266ZM407.211 33.4551H413.609L410.393 23.875L407.211 33.4551ZM445.278 36.2852C445.278 35.2891 444.927 34.5273 444.223 34C443.52 33.4609 442.255 32.8984 440.427 32.3125C438.598 31.7148 437.151 31.1289 436.085 30.5547C433.179 28.9844 431.725 26.8691 431.725 24.209C431.725 22.8262 432.112 21.5957 432.886 20.5176C433.671 19.4277 434.79 18.5781 436.243 17.9688C437.708 17.3594 439.348 17.0547 441.165 17.0547C442.993 17.0547 444.622 17.3887 446.052 18.0566C447.481 18.7129 448.589 19.6445 449.374 20.8516C450.171 22.0586 450.569 23.4297 450.569 24.9648H445.296C445.296 23.793 444.927 22.8848 444.188 22.2402C443.45 21.584 442.413 21.2559 441.077 21.2559C439.788 21.2559 438.786 21.5312 438.071 22.082C437.356 22.6211 436.999 23.3359 436.999 24.2266C436.999 25.0586 437.415 25.7559 438.247 26.3184C439.091 26.8809 440.327 27.4082 441.956 27.9004C444.956 28.8027 447.141 29.9219 448.513 31.2578C449.884 32.5938 450.569 34.2578 450.569 36.25C450.569 38.4648 449.731 40.2051 448.055 41.4707C446.38 42.7246 444.124 43.3516 441.288 43.3516C439.319 43.3516 437.526 42.9941 435.909 42.2793C434.292 41.5527 433.055 40.5625 432.2 39.3086C431.356 38.0547 430.934 36.6016 430.934 34.9492H436.225C436.225 37.7734 437.913 39.1855 441.288 39.1855C442.542 39.1855 443.52 38.9336 444.223 38.4297C444.927 37.9141 445.278 37.1992 445.278 36.2852ZM106.929 58.7705H101.867V64H99.2299V51.2031H107.562V53.3389H101.867V56.6436H106.929V58.7705ZM150.203 57.8916C150.203 59.1514 149.98 60.2559 149.535 61.2051C149.09 62.1543 148.451 62.8867 147.619 63.4023C146.793 63.918 145.844 64.1758 144.771 64.1758C143.711 64.1758 142.764 63.9209 141.932 63.4111C141.1 62.9014 140.456 62.1748 139.999 61.2314C139.542 60.2822 139.31 59.1924 139.304 57.9619V57.3291C139.304 56.0693 139.53 54.9619 139.981 54.0068C140.438 53.0459 141.08 52.3105 141.906 51.8008C142.738 51.2852 143.687 51.0273 144.754 51.0273C145.82 51.0273 146.766 51.2852 147.593 51.8008C148.425 52.3105 149.066 53.0459 149.517 54.0068C149.974 54.9619 150.203 56.0664 150.203 57.3203V57.8916ZM147.531 57.3115C147.531 55.9697 147.291 54.9502 146.81 54.2529C146.33 53.5557 145.644 53.207 144.754 53.207C143.869 53.207 143.186 53.5527 142.706 54.2441C142.225 54.9297 141.982 55.9375 141.976 57.2676V57.8916C141.976 59.1982 142.217 60.2119 142.697 60.9326C143.178 61.6533 143.869 62.0137 144.771 62.0137C145.656 62.0137 146.336 61.668 146.81 60.9766C147.285 60.2793 147.525 59.2656 147.531 57.9355V57.3115ZM191.596 53.3389H187.676V64H185.039V53.3389H181.172V51.2031H191.596V53.3389ZM233.973 57.8916C233.973 59.1514 233.751 60.2559 233.305 61.2051C232.86 62.1543 232.221 62.8867 231.389 63.4023C230.563 63.918 229.614 64.1758 228.542 64.1758C227.481 64.1758 226.535 63.9209 225.703 63.4111C224.871 62.9014 224.226 62.1748 223.769 61.2314C223.312 60.2822 223.081 59.1924 223.075 57.9619V57.3291C223.075 56.0693 223.3 54.9619 223.752 54.0068C224.209 53.0459 224.85 52.3105 225.676 51.8008C226.508 51.2852 227.458 51.0273 228.524 51.0273C229.59 51.0273 230.537 51.2852 231.363 51.8008C232.195 52.3105 232.837 53.0459 233.288 54.0068C233.745 54.9619 233.973 56.0664 233.973 57.3203V57.8916ZM231.301 57.3115C231.301 55.9697 231.061 54.9502 230.581 54.2529C230.1 53.5557 229.415 53.207 228.524 53.207C227.639 53.207 226.957 53.5527 226.476 54.2441C225.996 54.9297 225.753 55.9375 225.747 57.2676V57.8916C225.747 59.1982 225.987 60.2119 226.467 60.9326C226.948 61.6533 227.639 62.0137 228.542 62.0137C229.426 62.0137 230.106 61.668 230.581 60.9766C231.055 60.2793 231.296 59.2656 231.301 57.9355V57.3115ZM229.034 47.7754H231.802L229.368 50.5H227.302L229.034 47.7754ZM276.614 62.3828C276.14 62.9512 275.469 63.3936 274.602 63.71C273.734 64.0205 272.773 64.1758 271.719 64.1758C270.611 64.1758 269.639 63.9355 268.801 63.4551C267.969 62.9688 267.324 62.2656 266.867 61.3457C266.416 60.4258 266.185 59.3447 266.173 58.1025V57.2324C266.173 55.9551 266.387 54.8506 266.814 53.9189C267.248 52.9814 267.869 52.2666 268.678 51.7744C269.492 51.2764 270.444 51.0273 271.534 51.0273C273.052 51.0273 274.238 51.3906 275.094 52.1172C275.949 52.8379 276.456 53.8896 276.614 55.2725H274.048C273.931 54.54 273.67 54.0039 273.266 53.6641C272.867 53.3242 272.316 53.1543 271.613 53.1543C270.717 53.1543 270.034 53.4912 269.565 54.165C269.097 54.8389 268.859 55.8408 268.854 57.1709V57.9883C268.854 59.3301 269.108 60.3438 269.618 61.0293C270.128 61.7148 270.875 62.0576 271.859 62.0576C272.85 62.0576 273.556 61.8467 273.978 61.4248V59.2188H271.578V57.2764H276.614V62.3828ZM314.096 59.3154H311.996V64H309.359V51.2031H314.114C315.625 51.2031 316.791 51.54 317.612 52.2139C318.432 52.8877 318.842 53.8398 318.842 55.0703C318.842 55.9434 318.652 56.6729 318.271 57.2588C317.896 57.8389 317.325 58.3018 316.557 58.6475L319.326 63.877V64H316.496L314.096 59.3154ZM311.996 57.1797H314.122C314.785 57.1797 315.297 57.0127 315.661 56.6787C316.024 56.3389 316.205 55.873 316.205 55.2812C316.205 54.6777 316.033 54.2031 315.687 53.8574C315.347 53.5117 314.823 53.3389 314.114 53.3389H311.996V57.1797ZM358.68 61.3633H354.056L353.178 64H350.374L355.138 51.2031H357.581L362.371 64H359.567L358.68 61.3633ZM354.768 59.2275H357.968L356.359 54.4375L354.768 59.2275ZM401.865 58.7705H396.803V64H394.166V51.2031H402.498V53.3389H396.803V56.6436H401.865V58.7705ZM445.139 57.8916C445.139 59.1514 444.917 60.2559 444.471 61.2051C444.026 62.1543 443.387 62.8867 442.555 63.4023C441.729 63.918 440.78 64.1758 439.708 64.1758C438.647 64.1758 437.701 63.9209 436.869 63.4111C436.037 62.9014 435.392 62.1748 434.935 61.2314C434.478 60.2822 434.247 59.1924 434.241 57.9619V57.3291C434.241 56.0693 434.466 54.9619 434.918 54.0068C435.375 53.0459 436.016 52.3105 436.842 51.8008C437.674 51.2852 438.624 51.0273 439.69 51.0273C440.756 51.0273 441.703 51.2852 442.529 51.8008C443.361 52.3105 444.003 53.0459 444.454 54.0068C444.911 54.9619 445.139 56.0664 445.139 57.3203V57.8916ZM442.467 57.3115C442.467 55.9697 442.227 54.9502 441.747 54.2529C441.266 53.5557 440.581 53.207 439.69 53.207C438.805 53.207 438.123 53.5527 437.642 54.2441C437.162 54.9297 436.919 55.9375 436.913 57.2676V57.8916C436.913 59.1982 437.153 60.2119 437.633 60.9326C438.114 61.6533 438.805 62.0137 439.708 62.0137C440.592 62.0137 441.272 61.668 441.747 60.9766C442.221 60.2793 442.462 59.2656 442.467 57.9355V57.3115Z" fill="#303030"/>
</svg>
